HIERARCHY
ROOT Hips
{
  OFFSET 52.9477 95.6818 11.712
  CHANNELS 6 Xposition Yposition Zposition Zrotation Xrotation Yrotation
  JOINT spine
  {
    OFFSET 0 7.96568 0.458067
    CHANNELS 3 Zrotation Xrotation Yrotation
    JOINT spine1
    {
      OFFSET 0 10.2431 0
      CHANNELS 3 Zrotation Xrotation Yrotation
      JOINT spine2
      {
        OFFSET 0 9.81475 0
        CHANNELS 3 Zrotation Xrotation Yrotation
        JOINT Neck
        {
          OFFSET 0 25.1986 1.20138
          CHANNELS 3 Zrotation Xrotation Yrotation
          JOINT Head
          {
            OFFSET 0 7.61315 0
            CHANNELS 3 Zrotation Xrotation Yrotation
            End Site
            {
              OFFSET 0 18.4281 -6.07733
            }
          }
        }
        JOINT RightShoulder
        {
          OFFSET -4.1327 10.5992 -0.575451
          CHANNELS 3 Zrotation Xrotation Yrotation
          JOINT RightArm
          {
            OFFSET 0 13.9018 0
            CHANNELS 3 Zrotation Xrotation Yrotation
            JOINT RightArmRoll
            {
              OFFSET 0 7.01789 0
              CHANNELS 3 Zrotation Xrotation Yrotation
              JOINT RightForeArm
              {
                OFFSET 0 20.4406 0
                CHANNELS 3 Zrotation Xrotation Yrotation
                JOINT RightForeArmRoll
                {
                  OFFSET 0 7.87515 0
                  CHANNELS 3 Zrotation Xrotation Yrotation
                  JOINT RightHand
                  {
                    OFFSET 0 15.8037 0
                    CHANNELS 3 Zrotation Xrotation Yrotation
                    End Site
                    {
                      OFFSET 0 0 0
                    }
                  }
                }
              }
            }
          }
        }
        JOINT LeftShoulder
        {
          OFFSET 4.1327 10.5992 -0.575451
          CHANNELS 3 Zrotation Xrotation Yrotation
          JOINT LeftArm
          {
            OFFSET 0 13.9018 0
            CHANNELS 3 Zrotation Xrotation Yrotation
            JOINT LeftArmRoll
            {
              OFFSET 0 7.01789 0
              CHANNELS 3 Zrotation Xrotation Yrotation
              JOINT LeftForeArm
              {
                OFFSET 0 20.4406 0
                CHANNELS 3 Zrotation Xrotation Yrotation
                JOINT LeftForeArmRoll
                {
                  OFFSET 0 7.87515 0
                  CHANNELS 3 Zrotation Xrotation Yrotation
                  JOINT LeftHand
                  {
                    OFFSET 0 15.8037 0
                    CHANNELS 3 Zrotation Xrotation Yrotation
                    End Site
                    {
                      OFFSET 0 0 0
                    }
                  }
                }
              }
            }
          }
        }
      }
    }
  }
  JOINT RightUpLeg
  {
    OFFSET -7.06048 -1.2947 -1.0861
    CHANNELS 3 Zrotation Xrotation Yrotation
    JOINT RightUpLegRoll
    {
      OFFSET 0 18.5308 0
      CHANNELS 3 Zrotation Xrotation Yrotation
      JOINT RightLeg
      {
        OFFSET 0 -22.9476 0
        CHANNELS 3 Zrotation Xrotation Yrotation
        JOINT RightLegRoll
        {
          OFFSET 0 23.0226 0
          CHANNELS 3 Zrotation Xrotation Yrotation
          JOINT RightFoot
          {
            OFFSET 0 19.1625 0
            CHANNELS 3 Zrotation Xrotation Yrotation
            JOINT RightToeBase
            {
              OFFSET 0 16.0188 0
              CHANNELS 3 Zrotation Xrotation Yrotation
              End Site
              {
                OFFSET 0.00678979 7.75782 -0.894206
              }
            }
          }
        }
      }
    }
  }
  JOINT LeftUpLeg
  {
    OFFSET 7.06048 -1.2947 -1.0861
    CHANNELS 3 Zrotation Xrotation Yrotation
    JOINT LeftUpLegRoll
    {
      OFFSET 0 18.5309 0
      CHANNELS 3 Zrotation Xrotation Yrotation
      JOINT LeftLeg
      {
        OFFSET 0 22.9475 0
        CHANNELS 3 Zrotation Xrotation Yrotation
        JOINT LeftLegRoll
        {
          OFFSET 0 23.2355 0
          CHANNELS 3 Zrotation Xrotation Yrotation
          JOINT LeftFoot
          {
            OFFSET 0 18.9496 0
            CHANNELS 3 Zrotation Xrotation Yrotation
            JOINT LeftToeBase
            {
              OFFSET 0 16.0188 0
              CHANNELS 3 Zrotation Xrotation Yrotation
              End Site
              {
                OFFSET -0.0304289 7.75781 -0.894207
              }
            }
          }
        }
      }
    }
  }
}
MOTION
Frames: 4
Frame Time: 0.00208333
52.4018 95.5987 11.513 -0.685652 -1.24893 2.61833 0.0984201 -2.02286 -0.054283 0.193604 -0.0429916 -0.11892 0.195091 1.60207 -0.122191 2.80535 22.3028 -1.0783 -1.38467 -1.92407 -0.278027 74.7739 3.36988 -0.386952 100.58 18.3823 26.4417 -0 -3.18055e-015 -0 -1.02789 -0.0130115 0.0678836 6.70473e-006 -2.80872e-006 -3.04407 8.03025 -4.95137 0.697634 -72.3345 1.93637 0.696086 -104.465 19.7186 -24.3138 3.18055e-015 3.18055e-015 -3.18055e-015 3.81576 -0.0285371 -0.535325 3.18055e-005 2.69424e-006 3.04271 -8.03008 -4.95138 -0.697593 175.35 -2.4543 -1.9178 180 7.01525e-015 178.832 177.668 3.65397 179.617 3.02663e-006 1.24668e-006 0.0461104 -18.8882 68.0378 19.5612 8.14031 25.2905 -3.41721 -173.23 0.204047 0.0186194 4.54188e-006 -4.6773e-006 -1.12123 -1.90812 -6.76945 0.146856 -1.37498e-006 -4.95266e-006 -0.0651667 18.7014 68.7277 -20.1378 -8.13649 25.2327 3.48772 
52.4314 95.5984 11.5118 -0.685522 -1.25672 2.62426 0.100293 -2.02302 -0.0520192 0.195622 -0.0433281 -0.115707 0.19707 1.60173 -0.119011 2.78033 22.3108 -1.07848 -1.36145 -1.91657 -0.283825 74.7619 3.36075 -0.389238 100.575 18.3651 26.515 3.18055e-015 -3.18055e-015 3.18055e-015 -1.0919 -0.0129693 0.0737148 6.70473e-006 -2.80872e-006 -3.04409 8.03025 -4.95137 0.697634 -72.364 1.94116 0.697735 -104.428 19.7447 -24.415 -6.36111e-015 -3.18055e-015 -9.54166e-015 3.92227 -0.0292083 -0.542825 3.18055e-005 2.69424e-006 3.04279 -8.03008 -4.95138 -0.697593 175.349 -2.4668 -1.91602 180 7.01525e-015 178.832 177.667 3.65261 179.617 3.02663e-006 1.24668e-006 0.0461104 -18.8882 68.0378 19.5612 8.14043 25.2922 -3.41437 -173.231 0.194804 0.0197519 4.54188e-006 -4.6773e-006 -1.12123 -1.90666 -6.7684 0.147062 -1.37498e-006 -4.95266e-006 -0.0651667 18.7015 68.7276 -20.1377 -8.13649 25.2327 3.48772 
52.422 95.5985 11.5146 -0.685233 -1.26453 2.63028 0.102112 -2.02318 -0.0497622 0.19741 -0.0436375 -0.112564 0.198822 1.60142 -0.115897 2.75654 22.3178 -1.07882 -1.33881 -1.90806 -0.28943 74.7499 3.35139 -0.391631 100.57 18.3494 26.587 2.38542e-015 6.36111e-015 3.18055e-015 -1.1558 -0.0129067 0.0794192 6.70473e-006 -2.80872e-006 -3.04414 8.03025 -4.95137 0.697634 -72.3913 1.94541 0.699338 -104.396 19.7709 -24.5141 3.18055e-015 3.18055e-015 -0 4.0286 -0.0298837 -0.55021 3.18055e-005 2.69424e-006 3.04287 -8.03008 -4.95138 -0.697593 175.348 -2.47941 -1.91416 180 7.01525e-015 178.832 177.667 3.65124 179.617 3.02663e-006 1.24668e-006 0.0461104 -18.8882 68.0377 19.5612 8.14056 25.2941 -3.41137 -173.232 0.185311 0.0208599 4.54188e-006 -4.6773e-006 -1.12123 -1.9053 -6.76697 0.147267 -1.37498e-006 -4.95266e-006 -0.0651667 18.7014 68.7274 -20.1376 -8.13649 25.2327 3.48772 
52.4256 95.6013 11.5157 -0.684831 -1.27236 2.63635 0.103892 -2.02333 -0.0475099 0.199037 -0.043928 -0.109469 0.200413 1.60113 -0.112829 2.7336 22.3243 -1.07928 -1.31659 -1.89884 -0.2949 74.7379 3.34187 -0.394099 100.566 18.3349 26.6582 -3.18055e-015 -3.18055e-015 -6.36111e-015 -1.21963 -0.0128299 0.085035 6.70473e-006 -2.80872e-006 -3.04419 8.03025 -4.95137 0.697634 -72.4172 1.9493 0.70091 -104.365 19.7971 -24.6118 -9.54166e-015 6.36111e-015 -0 4.1348 -0.0305621 -0.557515 3.18055e-005 2.69424e-006 3.04294 -8.03008 -4.95138 -0.697593 175.347 -2.4921 -1.91225 180 7.01525e-015 178.832 177.666 3.64985 179.617 3.02663e-006 1.24668e-006 0.0461104 -18.8882 68.0377 19.5611 8.14069 25.296 -3.40826 -173.234 0.175644 0.0219507 4.54188e-006 -4.6773e-006 -1.12123 -1.90402 -6.76527 0.147472 -1.37498e-006 -4.95266e-006 -0.0651667 18.7014 68.7271 -20.1373 -8.13649 25.2327 3.48772 
